<svg id="visual" viewBox="0 0 1920 1080" width="1920" height="1080" xmlns="http://www.w3.org/2000/svg" xmlns:xlink="http://www.w3.org/1999/xlink" version="1.1"><path d="M1823 1080L1823 720L1823 360L1823 0L1920 0L1920 360L1920 720L1920 1080Z" fill="#0066ff"></path><path d="M1708 1080L1708 720L1708 360L1689 0L1824 0L1824 360L1824 720L1824 1080Z" fill="#005eeb"></path><path d="M1573 1080L1554 720L1554 360L1554 0L1690 0L1709 360L1709 720L1709 1080Z" fill="#0056d8"></path><path d="M1458 1080L1439 720L1439 360L1439 0L1555 0L1555 360L1555 720L1574 1080Z" fill="#004fc5"></path><path d="M1036 1080L1017 720L1036 360L978 0L1440 0L1440 360L1440 720L1459 1080Z" fill="#0047b2"></path><path d="M882 1080L844 720L882 360L805 0L979 0L1037 360L1018 720L1037 1080Z" fill="#00409f"></path><path d="M460 1080L421 720L479 360L441 0L806 0L883 360L845 720L883 1080Z" fill="#00388d"></path><path d="M268 1080L249 720L268 360L229 0L442 0L480 360L422 720L461 1080Z" fill="#00317b"></path><path d="M0 1080L0 720L0 360L0 0L230 0L269 360L250 720L269 1080Z" fill="#002a6a"></path></svg>